<svg xmlns="http://www.w3.org/2000/svg" viewBox="0 0 100 100">
  <defs>
    <linearGradient id="crustGradient" x1="0%" y1="0%" x2="100%" y2="100%">
      <stop offset="0%" style="stop-color:#E6C2BF"/>
      <stop offset="100%" style="stop-color:#5D4037"/>
    </linearGradient>
  </defs>
  <path d="M15 60 Q10 45 25 35 Q35 25 50 20 Q65 25 75 35 Q90 45 85 60 Q80 75 50 85 Q20 75 15 60" fill="url(#crustGradient)"/>
  <path d="M25 55 Q35 40 50 35 Q65 40 75 55" stroke="#5D4037" stroke-width="2" fill="none"/>
  <path d="M30 60 Q40 48 50 45 Q60 48 70 60" stroke="#5D4037" stroke-width="2" fill="none"/>
  <path d="M35 65 Q45 55 50 53 Q55 55 65 65" stroke="#5D4037" stroke-width="2" fill="none"/>
</svg>


